<svg xmlns="http://www.w3.org/2000/svg" viewBox="0 0 216 48" role="img" aria-label="LaravelDAV">
  <!-- icon segment: accent background, rounded on the left -->
  <path fill="#FF2D20" d="M10 0H48V48H10A10 10 0 0 1 0 38V10A10 10 0 0 1 10 0Z"/>
  <!-- laravel segment: white background -->
  <rect x="48" y="0" width="102" height="48" fill="#ffffff"/>
  <!-- dav segment: accent background, rounded on the right -->
  <path fill="#FF2D20" d="M150 0H206A10 10 0 0 1 216 10V38A10 10 0 0 1 206 48H150Z"/>

  <!-- calendar glyph, centered in the icon segment -->
  <g fill="none" stroke="#ffffff" stroke-width="2.5" stroke-linecap="round" stroke-linejoin="round">
    <path d="M20 13v6"/>
    <path d="M28 13v6"/>
    <rect x="14" y="17" width="20" height="17" rx="3"/>
    <path d="M14 24h20"/>
  </g>

  <text x="61" y="32" fill="#FF2D20" font-family="Inter, ui-sans-serif, system-ui, sans-serif" font-size="22" font-weight="700" letter-spacing="-0.5">Laravel</text>
  <text x="162" y="32" fill="#ffffff" font-family="Inter, ui-sans-serif, system-ui, sans-serif" font-size="22" font-weight="700" letter-spacing="0.5">DAV</text>
</svg>
